<?xml version="1.0" standalone="no"?><!DOCTYPE svg PUBLIC "-//W3C//DTD SVG 1.1//EN" "http://www.w3.org/Graphics/SVG/1.1/DTD/svg11.dtd"><svg class="icon" width="200px" height="199.80px" viewBox="0 0 1025 1024" version="1.1" xmlns="http://www.w3.org/2000/svg"><path d="M1024.064 581.888c0 98.624-211.136 308.928-512 308.928-293.248 0-512-206.848-512-308.928 0-102.016 219.712-308.48 512-308.48C815.296 273.344 1024.064 479.872 1024.064 581.888L1024.064 581.888zM512.384 329.728c-136.256 0-246.72 113.024-246.72 252.352 0 139.328 110.528 252.288 246.72 252.288 136.384 0 246.784-113.024 246.784-252.288C759.168 442.752 648.832 329.728 512.384 329.728L512.384 329.728zM512.384 329.728" fill="#2ecc71" /><path d="M512 420.992c-86.784 0-157.12 71.936-157.12 160.704S425.216 742.4 512 742.4c86.72 0 157.056-71.936 157.056-160.704S598.72 420.992 512 420.992L512 420.992zM512 420.992" fill="#2ecc71" /></svg>