<?xml version="1.0" standalone="no"?><!DOCTYPE svg PUBLIC "-//W3C//DTD SVG 1.1//EN" "http://www.w3.org/Graphics/SVG/1.1/DTD/svg11.dtd"><svg class="icon" width="200px" height="200.00px" viewBox="0 0 1024 1024" version="1.1" xmlns="http://www.w3.org/2000/svg"><path d="M986.074074 448.284444c0 8.457481-0.720593 14.791111-2.123852 19.000889-11.264 22.565926-27.496296 27.496296-48.658963 14.791111-7.054222-2.806519-11.984593-10.543407-14.791111-23.248592-1.441185-2.806519-2.123852-7.395556-2.123852-13.729185a50.820741 50.820741 0 0 0-2.123852-15.853037c-8.457481-40.922074-23.969185-81.806222-46.535111-122.690371-28.216889-47.93837-61.364148-87.419259-99.441777-118.442666-36.67437-29.620148-80.402963-52.906667-131.185778-69.783704a498.232889 498.232889 0 0 0-135.395556-19.076741h-8.457481c-2.844444 0-6.371556 0.379259-10.61926 1.061926a64.929185 64.929185 0 0 1-8.419555 1.061926c-11.301926 0-25.41037 1.403259-42.325333 4.247704a400.118519 400.118519 0 0 0-78.279112 23.248592 397.842963 397.842963 0 0 0-120.604444 74.031408c-33.867852 29.582222-63.488 66.294519-88.860444 109.985185a461.103407 461.103407 0 0 0-50.782815 148.062815c-2.806519 15.54963-4.209778 39.480889-4.209778 71.907555 0 15.54963 0.682667 26.81363 2.085926 33.867852 0 4.209778 0.720593 10.922667 2.123852 20.100741 1.403259 9.140148 2.844444 15.853037 4.247703 20.100741 11.264 53.551407 31.023407 100.807111 59.240297 141.691259 29.582222 45.131852 63.450074 81.768296 101.527703 109.985185a468.916148 468.916148 0 0 0 137.557334 69.783704c50.744889 14.108444 104.372148 19.038815 160.805926 14.791111 52.148148-4.171852 103.651556-18.318222 154.43437-42.287408 19.721481-8.457481 42.287407-21.845333 67.697778-40.201481 21.162667-15.473778 40.201481-32.388741 57.116444-50.744889 5.650963-5.650963 14.108444-15.511704 25.410371-29.582222 5.613037-7.054222 12.667259-17.635556 21.12474-31.744 16.952889-28.216889 28.937481-50.062222 35.991704-65.573926 11.264-22.565926 19.038815-40.201481 23.248593-52.868741 2.844444-4.247704 5.650963-13.425778 8.457481-27.496296 0-2.844444 0.720593-6.712889 2.123852-11.643259 1.403259-4.93037 2.123852-8.798815 2.123852-11.64326 2.806519 21.162667 2.123852 39.480889-2.123852 54.992593-2.806519 16.914963-5.650963 28.216889-8.457481 33.867852-1.403259 7.016296-4.93037 17.59763-10.581334 31.706074-9.860741 22.565926-19.038815 42.325333-27.496296 59.240296-15.54963 26.775704-29.620148 47.93837-42.325333 63.450074-22.565926 25.41037-40.201481 43.690667-52.868741 54.992593-35.271111 29.582222-78.999704 54.992593-131.223704 76.155259a501.76 501.76 0 0 1-154.43437 31.706074c-52.186074 2.806519-105.054815-4.93037-158.644148-23.248592-45.131852-14.108444-91.022222-37.394963-137.557334-69.783704a470.433185 470.433185 0 0 1-105.775407-105.813333 459.548444 459.548444 0 0 1-38.07763-65.536 2358.423704 2358.423704 0 0 1-27.496296-69.783704c-11.301926-35.271111-18.356148-74.752-21.162667-118.480593a528.308148 528.308148 0 0 1 10.581334-122.652444c9.860741-47.976296 29.582222-95.914667 59.240296-143.853037 22.565926-36.636444 52.186074-71.907556 88.860444-105.737482 32.426667-31.023407 71.224889-56.433778 116.356741-76.155259 53.589333-25.41037 105.813333-40.201481 156.558222-44.411259C483.934815 38.646519 504.414815 37.925926 531.190519 37.925926c19.721481 0 46.535111 2.806519 80.402962 8.457481a473.315556 473.315556 0 0 1 143.853038 54.992593c45.131852 25.41037 85.333333 59.240296 120.604444 101.527704 32.464593 39.480889 57.837037 80.402963 76.155259 122.69037 5.688889 14.108444 12.705185 36.636444 21.162667 67.659852 8.457481 31.023407 12.705185 49.379556 12.705185 54.992593z" fill="#ffffff" /></svg>