<?xml version="1.0" standalone="no"?><!DOCTYPE svg PUBLIC "-//W3C//DTD SVG 1.1//EN" "http://www.w3.org/Graphics/SVG/1.1/DTD/svg11.dtd"><svg class="icon" width="200px" height="200.00px" viewBox="0 0 1024 1024" version="1.1" xmlns="http://www.w3.org/2000/svg"><path d="M511.999488 563.676963c84.783988 0 163.107845 33.916461 218.819704 91.239004l-72.67009 72.67009c-37.951357-37.950334-88.817861-60.556191-146.149615-60.556191-57.331753 0-108.197234 22.605857-146.148591 60.556191l-72.67009-72.67009C348.891643 597.593424 427.217547 563.676963 511.999488 563.676963L511.999488 563.676963zM146.228921 507.966127c98.507548-96.895841 226.888474-150.994969 365.769544-150.994969 138.882094 0 267.264043 54.099129 365.769544 150.994969l-73.471338 73.472362c-77.515445-77.515445-182.488241-121.114428-292.299229-121.114428-109.809965 0-214.783785 43.598984-292.298206 121.114428L146.228921 507.966127zM793.798573 206.785623c86.394672 36.33044 163.107845 89.62832 230.121098 155.029866l-73.479525 73.479525c-117.079532-117.085672-272.909623-181.677782-438.440657-181.677782-165.530011 0-321.361125 64.592111-438.439634 181.677782l-73.480548-73.479525c67.014276-65.401546 143.726425-118.699426 230.121098-155.029866 89.62832-36.337603 183.290513-56.521295 281.798061-56.521295C610.50806 150.265352 704.170253 170.44802 793.798573 206.785623L793.798573 206.785623zM460.323549 822.059732c0-29.072129 22.605857-51.676963 51.67594-51.676963 29.072129 0 51.676963 22.604834 51.676963 51.676963 0 29.070082-22.604834 51.67594-51.676963 51.67594C482.929406 873.735671 460.323549 851.129814 460.323549 822.059732z" fill="#ffffff" /></svg>